<svg width="20" height="19" viewBox="0 0 20 19" fill="none" xmlns="http://www.w3.org/2000/svg">
<path d="M18 0H1.99998C0.899977 0 0.00997663 0.9 0.00997663 2L0.000976562 17.584C0.000976562 18.475 1.07798 18.922 1.70798 18.292L3.99998 16H18C19.1 16 20 15.1 20 14V2C20 0.9 19.1 0 18 0ZM6.99998 8C6.99998 8.552 6.55198 9 5.99998 9C5.44798 9 4.99998 8.552 4.99998 8C4.99998 7.448 5.44798 7 5.99998 7C6.55198 7 6.99998 7.448 6.99998 8ZM11 8C11 8.552 10.552 9 9.99998 9C9.44798 9 8.99998 8.552 8.99998 8C8.99998 7.448 9.44798 7 9.99998 7C10.552 7 11 7.448 11 8ZM15 8C15 8.552 14.552 9 14 9C13.448 9 13 8.552 13 8C13 7.448 13.448 7 14 7C14.552 7 15 7.448 15 8Z" fill="#0038FF"/>
</svg>
