<svg width="20" height="18" viewBox="0 0 20 18" fill="none" xmlns="http://www.w3.org/2000/svg">
<path d="M1 0C0.734784 0 0.48043 0.105357 0.292893 0.292893C0.105357 0.48043 0 0.734784 0 1V6.5957C0 7.1097 0.389391 7.53884 0.900391 7.58984L15 9L0.900391 10.4102C0.389391 10.4612 0 10.8903 0 11.4043V17C0 17.2652 0.105357 17.5196 0.292893 17.7071C0.48043 17.8946 0.734784 18 1 18C1.19092 18.0004 1.37797 17.9462 1.53906 17.8438C1.53971 17.8431 1.54037 17.8424 1.54102 17.8418L19.3398 9.94336L19.3379 9.93945C19.5315 9.86996 19.6989 9.74247 19.8174 9.57435C19.9359 9.40623 19.9996 9.20567 20 9C19.9996 8.79433 19.9359 8.59377 19.8174 8.42565C19.6989 8.25753 19.5315 8.13004 19.3379 8.06055L19.3398 8.05664L1.52734 0.152344C1.36921 0.0533683 1.18655 0.000598894 1 0Z" fill="#0038FF"/>
</svg>
